<svg width="1423" height="1398" viewBox="0 0 1423 1398" fill="none" xmlns="http://www.w3.org/2000/svg">
<rect x="423.512" y="790.179" width="514.809" height="337.542" rx="25" transform="rotate(-42.2713 423.512 790.179)" fill="#31B2F3"/>
<rect x="67.4561" y="510.101" width="32.1755" height="238.265" rx="5" transform="rotate(-42.2713 67.4561 510.101)" fill="#D9D9D9"/>
<rect x="521.083" y="84.3301" width="32.1755" height="238.265" rx="5" transform="rotate(-42.2713 521.083 84.3301)" fill="#D9D9D9"/>
<rect x="153.33" y="540.045" width="567.435" height="376.253" rx="24.5" transform="rotate(-42.2713 153.33 540.045)" fill="#31B2F3" stroke="#55C6FF"/>
<rect x="224.436" y="555.232" width="482.633" height="198.554" rx="3" transform="rotate(-42.2713 224.436 555.232)" fill="#1B57F1"/>
<ellipse cx="355.963" cy="556.421" rx="75.0763" ry="69.4939" transform="rotate(-42.2713 355.963 556.421)" fill="white"/>
<path d="M345.764 511.544C334.16 514.589 323.856 521.908 317.022 531.959C310.188 542.01 307.356 554.009 309.124 565.429C310.891 576.849 317.119 586.8 326.497 593.186C335.876 599.572 347.672 601.896 359.402 599.667C371.132 597.438 381.881 590.831 389.386 581.237C396.891 571.642 400.566 559.81 399.638 548.23C398.709 536.65 393.25 526.227 384.408 519.155C375.567 512.082 364.034 508.913 352.237 510.314L353.118 530.522C359.608 529.751 365.954 531.495 370.818 535.386C375.683 539.278 378.686 545.012 379.197 551.384C379.708 557.755 377.686 564.265 373.557 569.544C369.428 574.822 363.513 578.458 357.06 579.684C350.606 580.91 344.115 579.632 338.956 576.118C333.796 572.605 330.369 567.13 329.397 560.846C328.424 554.563 329.982 547.961 333.742 542.431C337.502 536.901 343.171 532.875 349.556 531.199L345.764 511.544Z" fill="black"/>
<ellipse cx="570.242" cy="361.636" rx="75.0763" ry="69.4939" transform="rotate(-42.2713 570.242 361.636)" fill="white"/>
<path d="M562.073 314.913C550.469 317.959 540.166 325.277 533.331 335.328C526.497 345.379 523.666 357.378 525.433 368.798C527.201 380.218 533.429 390.169 542.807 396.555C552.185 402.942 563.981 405.265 575.711 403.036C587.442 400.807 598.191 394.2 605.696 384.606C613.201 375.012 616.876 363.179 615.947 351.599C615.019 340.02 609.559 329.596 600.718 322.524C591.877 315.452 580.344 312.282 568.547 313.683L569.427 333.891C575.918 333.121 582.263 334.864 587.128 338.756C591.992 342.647 594.996 348.382 595.507 354.753C596.018 361.124 593.996 367.634 589.866 372.913C585.737 378.191 579.823 381.827 573.369 383.053C566.915 384.279 560.425 383.001 555.265 379.488C550.105 375.974 546.679 370.499 545.706 364.216C544.734 357.932 546.292 351.33 550.052 345.8C553.812 340.27 559.481 336.244 565.865 334.568L562.073 314.913Z" fill="black"/>
<path d="M523.775 477.664C525.891 475.74 529.257 475.899 530.348 478.543C532.251 483.153 532.2 489.074 530.114 495.619C527.291 504.475 520.975 513.75 512.556 521.403C504.137 529.057 494.303 534.462 485.219 536.429C478.505 537.883 472.606 537.372 468.197 535.039C465.67 533.701 465.832 530.335 467.948 528.412V528.412C470.064 526.488 473.361 526.76 476.007 527.843C479.201 529.151 483.249 529.352 487.788 528.369C494.679 526.876 502.139 522.776 508.526 516.97C514.913 511.164 519.704 504.128 521.846 497.41C523.256 492.985 523.44 488.937 522.442 485.633C521.616 482.895 521.659 479.587 523.775 477.664V477.664Z" fill="white"/>
<path d="M745.967 363.612C761.698 349.313 771.488 329.774 773.186 309.294C774.883 288.813 768.347 269.069 755.017 254.405C741.687 239.74 722.654 231.357 702.105 231.098C681.556 230.84 661.174 238.728 645.444 253.027L695.706 308.32L745.967 363.612Z" fill="#1B57F1"/>
<path d="M240.483 621.144C224.753 635.443 214.962 654.982 213.265 675.462C211.568 695.943 218.103 715.687 231.434 730.351C244.764 745.016 263.797 753.399 284.346 753.657C304.895 753.916 325.276 746.028 341.007 731.729L290.745 676.436L240.483 621.144Z" fill="#1B57F1"/>
<path d="M94.4115 452.057C109.164 468.286 106.91 494.361 89.3775 510.299C71.8451 526.236 45.6733 525.999 30.9212 509.771C16.169 493.542 18.4228 467.466 35.9551 451.529C53.4875 435.592 79.6593 435.828 94.4115 452.057Z" fill="#1B57F1"/>
<path d="M551.377 29.9595C566.129 46.1882 563.876 72.2638 546.343 88.201C528.811 104.138 502.639 103.902 487.887 87.6732C473.135 71.4445 475.389 45.3688 492.921 29.4316C510.453 13.4944 536.625 13.7308 551.377 29.9595Z" fill="#1B57F1"/>
<g filter="url(#filter0_d_56_59)">
<rect x="524.814" y="731.314" width="17.8753" height="96.4405" transform="rotate(-42.2713 524.814 731.314)" fill="#D9D9D9"/>
<rect x="589.685" y="802.678" width="17.8753" height="176.808" transform="rotate(-42.2713 589.685 802.678)" fill="#5A5656"/>
<path d="M488.181 677.726L519.158 688.373L548.333 668.075L544.498 701.768L570.181 721.072L536.834 731.248L523.533 763.476L506.758 736.073L472.854 736.687L495.834 709.575L488.181 677.726Z" fill="#FBB94E"/>
<line y1="-0.125" x2="41.3366" y2="-0.125" transform="matrix(0.0861116 -0.996285 0.999959 0.00902949 518.996 676.548)" stroke="#FBB94E" stroke-width="0.25"/>
<line x1="554.49" y1="670.948" x2="578.299" y2="649.305" stroke="#FBB94E" stroke-width="0.25"/>
<line x1="482.443" y1="669.525" x2="462.409" y2="647.487" stroke="#FBB94E" stroke-width="0.25"/>
<line x1="451.318" y1="764.733" x2="475.127" y2="743.09" stroke="#FBB94E" stroke-width="0.25"/>
<line y1="-0.125" x2="41.3366" y2="-0.125" transform="matrix(-0.999959 -0.00902949 0.0861116 -0.996285 484.519 705.588)" stroke="#FBB94E" stroke-width="0.25"/>
<line y1="-0.125" x2="42.263" y2="-0.125" transform="matrix(-0.956198 0.292721 -0.232436 -0.972612 600.483 680.919)" stroke="#FBB94E" stroke-width="0.25"/>
<line y1="-0.125" x2="42.3486" y2="-0.125" transform="matrix(-0.412817 0.910814 -0.933635 -0.358226 496.503 750.66)" stroke="#FBB94E" stroke-width="0.25"/>
</g>
<g filter="url(#filter1_d_56_59)">
<path d="M701.804 885.053C713.154 874.547 720.169 860.304 721.307 845.456C722.445 830.609 717.612 816.374 707.871 805.883C698.13 795.391 684.28 789.503 669.367 789.514C654.453 789.524 639.699 795.432 628.349 805.938L665.077 845.495L701.804 885.053Z" fill="#8E9BBD"/>
<path d="M503.758 919.328C492.427 929.853 485.437 944.108 484.327 958.955C483.217 973.802 488.078 988.026 497.84 998.498C507.602 1008.97 521.466 1014.83 536.381 1014.79C551.296 1014.76 566.042 1008.82 577.373 998.295L540.566 958.811L503.758 919.328Z" fill="#8E9BBD"/>
<rect x="498.545" y="923.221" width="181.423" height="107.957" transform="rotate(-42.2713 498.545 923.221)" fill="#31B2F3"/>
</g>
<g clip-path="url(#clip0_56_59)" filter="url(#filter2_d_56_59)">
<path fill-rule="evenodd" clip-rule="evenodd" d="M708.002 539.606L714.803 533.456L727.555 544.842L731.254 551.664L798.357 625.938L791.559 632.089L724.451 557.813L718.033 553.446L708.002 539.606Z" fill="#D7D7D7"/>
<path d="M706.32 538.914L713.121 532.764L713.105 532.783L713.234 532.679L713.388 532.596L713.572 532.526L713.775 532.476L714.002 532.438L714.241 532.425L714.49 532.43L714.746 532.457L715.004 532.493L715.257 532.556L715.5 532.633L715.73 532.728L715.949 532.829L716.142 532.945L716.308 533.078L716.447 533.212L716.559 533.347L716.341 533.1L729.096 544.487L729.414 544.948L729.356 544.802L732.998 551.523L800.01 625.703L800.232 626.128L800.233 626.268L800.201 626.401L800.038 626.63L793.241 632.78L793.252 632.768L793.128 632.865L792.973 632.948L792.785 633.017L792.579 633.074L792.359 633.106L792.116 633.118L791.87 633.114L791.614 633.094L791.351 633.05L791.101 632.987L790.856 632.91L790.627 632.822L790.412 632.716L790.222 632.6L790.049 632.473L789.908 632.338L789.797 632.196L789.728 632.063L789.903 632.33L722.925 558.193L716.693 553.949L716.234 553.486L716.177 553.34L716.304 553.582L706.27 539.749L706.118 539.347L706.131 539.218L706.182 539.089L706.32 538.914L713.121 532.764L716.481 534.146L710.078 539.936L719.628 553.11L725.793 557.31L726.219 557.729L726.105 557.571L791.486 629.946L796.225 625.654L729.602 551.905L729.456 551.704L725.843 545.041L715.071 535.421L709.682 540.297L706.32 538.914Z" fill="black"/>
<path fill-rule="evenodd" clip-rule="evenodd" d="M802.916 637.823C810.373 631.076 821.771 631.347 828.163 638.42L890.121 706.999C896.515 714.074 895.634 725.446 888.173 732.194C880.714 738.938 869.316 738.669 862.921 731.596L800.964 663.013C794.576 655.942 795.458 644.567 802.92 637.822" fill="#FFC425"/>
<path d="M801.262 637.108L802.704 635.928L802.772 635.87L804.295 634.856L804.386 634.795L805.977 633.943L806.088 633.887L807.731 633.202L807.872 633.145L809.555 632.615L809.728 632.573L811.443 632.205L811.657 632.172L813.381 631.968L813.058 632.028L813.649 631.946L815.376 631.905L815.054 631.936L815.685 631.915L817.392 632.038L817.191 632.03L817.448 632.043L817.736 632.078L819.422 632.366L819.486 632.373L819.745 632.43L819.772 632.436L821.418 632.885L821.807 633.016L822.031 633.117L821.75 632.988L823.34 633.6L823.914 633.89L823.63 633.724L825.152 634.49L825.734 634.899L825.388 634.624L826.84 635.551L827.015 635.671L828.375 636.761L828.507 636.879L829.763 638.123L829.812 638.178L891.776 706.762L891.819 706.811L892.927 708.184L893.001 708.279L893.944 709.741L893.992 709.826L894.762 711.358L894.797 711.435L895.403 713.032L895.428 713.095L895.866 714.742L895.884 714.805L896.159 716.485L896.165 716.538L896.273 718.244L896.281 718.293L896.227 720.006L896.22 720.055L896.007 721.765L896.001 721.811L895.626 723.505L895.612 723.549L895.08 725.211L895.059 725.259L894.364 726.88L894.343 726.924L893.491 728.49L893.464 728.533L892.45 730.031L892.414 730.078L891.252 731.49L891.2 731.541L889.884 732.858L889.825 732.91L888.383 734.091L888.308 734.146L886.785 735.162L886.695 735.219L885.111 736.073L884.994 736.125L883.355 736.818L883.209 736.869L881.534 737.396L881.352 737.445L879.645 737.811L879.423 737.847L877.7 738.047L878.023 737.988L877.433 738.066L875.714 738.107L876.033 738.082L875.403 738.101L873.689 737.978L873.89 737.985L873.64 737.972L873.345 737.938L871.665 737.653L871.596 737.639L871.344 737.583L871.317 737.577L869.669 737.134L869.28 737.002L869.056 736.902L869.338 737.026L867.747 736.42L867.173 736.129L867.457 736.295L865.928 735.53L865.353 735.118L865.698 735.397L864.246 734.47L864.066 734.343L862.713 733.256L862.58 733.14L861.326 731.891L861.269 731.837L799.312 663.256L799.269 663.204L798.154 661.83L798.087 661.736L797.143 660.277L797.095 660.193L796.325 658.659L796.29 658.582L795.677 656.985L795.66 656.921L795.215 655.273L795.204 655.214L794.928 653.533L794.923 653.477L794.814 651.774L794.807 651.723L794.861 650.009L794.868 649.963L795.081 648.251L795.088 648.202L795.462 646.512L795.477 646.464L796.009 644.802L796.028 644.762L796.717 643.135L796.743 643.097L797.596 641.529L797.624 641.483L798.637 639.988L798.667 639.935L799.836 638.526L799.88 638.477L801.203 637.161L804.622 638.482L803.319 639.781L802.196 641.134L801.218 642.586L800.395 644.102L799.72 645.681L799.202 647.294L798.834 648.941L798.628 650.606L798.582 652.269L798.684 653.921L798.954 655.547L799.375 657.131L799.957 658.662L800.698 660.122L801.581 661.497L802.638 662.798L864.552 731.328L865.717 732.488L866.919 733.451L868.163 734.247L869.433 734.884L870.718 735.372L872.016 735.722L873.358 735.947L874.738 736.045L876.164 736.013L877.641 735.836L879.154 735.514L880.67 735.035L882.189 734.4L883.67 733.599L885.113 732.634L886.489 731.506L887.76 730.239L888.887 728.874L889.862 727.432L890.694 725.912L891.367 724.339L891.886 722.721L892.254 721.074L892.46 719.412L892.507 717.746L892.404 716.095L892.134 714.468L891.706 712.885L891.124 711.354L890.389 709.897L889.5 708.52L888.45 707.219L826.535 638.69L825.37 637.533L824.162 636.565L822.917 635.772L821.647 635.135L820.363 634.643L819.065 634.295L817.729 634.07L816.35 633.969L814.923 634.004L813.44 634.181L811.933 634.507L810.412 634.977L808.899 635.618L807.41 636.419L805.976 637.379L804.563 638.535L801.262 637.108Z" fill="black"/>
<path fill-rule="evenodd" clip-rule="evenodd" d="M789.598 633.962L800.475 624.123L805.591 629.789L794.713 639.627" fill="black"/>
<path d="M787.836 633.245L798.713 623.406L798.7 623.426L798.825 623.321L798.981 623.238L799.162 623.168L799.374 623.113L799.595 623.081L799.838 623.069L800.084 623.072L800.339 623.092L800.596 623.135L800.852 623.199L801.091 623.275L801.326 623.364L801.541 623.471L801.739 623.588L801.905 623.714L802.039 623.847L802.149 623.989L802.23 624.132L802.044 623.855L807.162 629.514L807.386 629.954L807.39 630.087L807.36 630.213L807.195 630.448L796.311 640.286L796.331 640.268L796.199 640.371L796.05 640.456L795.862 640.524L795.658 640.574L795.436 640.613L795.193 640.625L794.94 640.62L794.687 640.593L794.428 640.558L794.179 640.494L793.933 640.417L793.698 640.328L793.483 640.221L793.292 640.105L793.126 639.98L792.985 639.846L792.875 639.703L792.799 639.569L792.98 639.837L787.864 634.171L787.638 633.738L787.634 633.605L787.664 633.479L787.836 633.245L798.713 623.406L802.08 624.783L791.642 634.219L794.563 637.453L803.382 629.473L800.459 626.246L791.196 634.62L787.836 633.245Z" fill="black"/>
<path fill-rule="evenodd" clip-rule="evenodd" d="M791.226 642.669L808.231 627.295L814.708 631.734L794.987 649.563L791.226 642.669Z" fill="#AAAAAA"/>
<path d="M789.551 641.978L806.553 626.611L806.535 626.622L806.659 626.524L806.815 626.441L807.002 626.373L807.208 626.316L807.428 626.284L807.674 626.265L807.92 626.268L808.173 626.295L808.436 626.339L808.688 626.395L808.932 626.479L809.16 626.567L809.375 626.674L809.572 626.791L809.738 626.917L809.873 627.05L809.577 626.8L816.049 631.23L816.507 631.693L816.565 631.838L816.589 631.976L816.577 632.113L816.533 632.236L816.385 632.416L796.67 650.253L796.682 650.235L796.558 650.336L796.401 650.422L796.214 650.491L796.016 650.544L795.788 650.579L795.552 650.592L795.299 650.588L795.044 650.565L794.788 650.521L794.53 650.461L794.291 650.387L794.057 650.294L793.842 650.187L793.652 650.069L793.479 649.943L793.344 649.811L793.233 649.671L793.152 649.53L793.114 649.387L793.188 649.602L789.434 642.709L789.352 642.353L789.375 642.225L789.551 641.978L806.553 626.611L809.913 627.986L793.256 643.047L795.401 646.983L812.418 631.59L808.728 629.06L792.909 643.359L789.551 641.978Z" fill="black"/>
<path fill-rule="evenodd" clip-rule="evenodd" d="M804.164 652.696C805.707 651.305 812.233 655.977 818.624 663.051L865.799 715.276C872.191 722.348 876.181 729.317 874.64 730.71C873.097 732.105 866.57 727.43 860.179 720.358L812.998 668.132C806.609 661.061 802.624 654.09 804.166 652.697" fill="#5F6062"/>
<path d="M802.663 651.883L803.011 651.691L802.906 651.753L803.055 651.666L803.673 651.495L804.125 651.442L803.801 651.503L804.018 651.457L804.245 651.429L804.486 651.423L804.942 651.454L805.5 651.531L805.472 651.527L805.735 651.572L805.985 651.634L806.224 651.708L806.093 651.663L806.744 651.867L807.23 652.061L807.436 652.175L807.09 651.996L807.829 652.321L808.426 652.681L808.038 652.421L808.852 652.859L808.989 652.935L809.878 653.486L809.97 653.544L810.922 654.199L810.988 654.245L811.998 655L812.052 655.037L813.106 655.885L813.154 655.92L814.255 656.854L814.29 656.884L815.424 657.904L815.471 657.942L817.817 660.207L817.861 660.254L820.25 662.788L820.273 662.809L867.456 715.032L867.47 715.057L869.749 717.692L869.787 717.734L871.804 720.298L871.83 720.333L872.726 721.565L872.742 721.586L873.562 722.78L873.577 722.804L874.312 723.942L874.332 723.973L874.976 725.054L874.996 725.082L875.55 726.099L875.567 726.137L876.021 727.076L876.045 727.118L876.399 727.975L876.419 728.029L876.663 728.796L876.685 728.867L876.82 729.533L876.83 729.624L876.85 730.187L876.84 730.318L876.736 730.766L876.65 730.954L876.429 731.281L876.395 731.324L876.138 731.528L875.797 731.72L875.897 731.653L875.747 731.742L875.137 731.913L874.678 731.965L875 731.907L874.791 731.951L874.557 731.98L874.316 731.986L873.86 731.955L873.302 731.876L873.33 731.879L873.073 731.84L872.817 731.775L872.577 731.701L872.71 731.744L872.058 731.543L871.572 731.346L871.372 731.236L871.712 731.411L870.973 731.089L870.383 730.729L870.77 730.991L869.95 730.549L869.82 730.473L868.923 729.924L868.833 729.863L867.88 729.21L867.814 729.164L866.804 728.41L866.751 728.369L865.695 727.525L865.654 727.49L864.554 726.553L864.519 726.525L863.378 725.505L863.338 725.468L860.993 723.2L860.949 723.154L858.552 720.621L858.53 720.597L811.347 668.374L811.331 668.354L809.053 665.717L809.015 665.673L806.998 663.109L806.978 663.078L806.082 661.846L806.061 661.821L805.239 660.629L805.225 660.605L804.49 659.464L804.476 659.439L803.826 658.355L803.806 658.324L803.253 657.307L803.233 657.274L802.781 656.333L802.757 656.29L802.403 655.432L802.39 655.379L802.139 654.613L802.123 654.544L801.988 653.878L801.973 653.782L801.952 653.22L801.968 653.093L802.066 652.642L802.151 652.455L802.373 652.127L805.949 653.265L805.783 653.503L805.721 653.785L805.737 654.24L805.859 654.829L806.092 655.533L806.424 656.346L806.859 657.247L807.394 658.231L808.024 659.283L808.744 660.399L809.55 661.569L810.426 662.771L812.41 665.298L814.662 667.903L861.822 720.107L864.185 722.606L866.486 724.826L867.58 725.809L868.647 726.712L869.661 727.525L870.613 728.232L871.493 728.835L872.266 729.313L872.917 729.663L873.386 729.867L873.566 729.923L873.39 729.902L873.067 729.94L872.954 729.999L873.019 729.906L873.082 729.622L873.064 729.172L872.942 728.582L872.717 727.874L872.378 727.062L871.943 726.161L871.408 725.178L870.779 724.123L870.058 723.009L869.258 721.844L868.376 720.636L866.391 718.111L864.146 715.507L816.98 663.302L814.616 660.806L812.316 658.583L811.222 657.6L810.161 656.698L809.14 655.884L808.189 655.177L807.315 654.575L806.536 654.095L805.885 653.746L805.416 653.542L805.237 653.484L805.411 653.51L805.742 653.471L805.657 653.512L802.663 651.883Z" fill="black"/>
<path fill-rule="evenodd" clip-rule="evenodd" d="M817.08 641.018C818.62 639.623 825.149 644.298 831.54 651.37L878.724 703.59C885.115 710.664 889.104 717.632 887.563 719.028C886.021 720.423 879.494 715.749 873.103 708.674L825.922 656.448C819.535 649.37 815.54 642.409 817.081 641.016" fill="#5F6062"/>
<path d="M815.581 640.198L815.93 640.003L815.823 640.068L815.974 639.976L816.59 639.812L817.048 639.76L816.719 639.819L816.936 639.772L817.168 639.75L817.411 639.738L817.865 639.773L818.425 639.846L818.395 639.847L818.652 639.889L818.904 639.946L819.149 640.022L819.017 639.978L819.668 640.182L820.154 640.379L820.354 640.49L820.015 640.311L820.753 640.638L821.343 640.997L820.956 640.734L821.777 641.175L821.905 641.255L822.796 641.8L822.886 641.864L823.84 642.511L823.912 642.564L824.917 643.31L824.968 643.358L826.032 644.199L826.073 644.23L827.172 645.174L827.206 645.204L828.343 646.215L828.387 646.262L830.732 648.529L830.776 648.575L833.174 651.104L833.189 651.129L880.372 703.35L880.395 703.372L882.673 706.009L882.71 706.054L884.721 708.613L884.747 708.649L885.643 709.88L885.665 709.906L886.486 711.097L886.501 711.119L887.235 712.262L887.25 712.287L887.899 713.371L887.912 713.401L888.473 714.419L888.485 714.45L888.945 715.393L888.962 715.433L889.315 716.293L889.336 716.345L889.586 717.113L889.603 717.18L889.737 717.849L889.753 717.944L889.767 718.504L889.757 718.634L889.659 719.083L889.574 719.271L889.354 719.596L889.319 719.641L889.062 719.843L888.714 720.035L888.82 719.972L888.671 720.06L888.053 720.231L887.601 720.285L887.924 720.224L887.707 720.269L887.482 720.295L887.232 720.302L886.777 720.271L886.219 720.193L886.247 720.197L885.991 720.154L885.741 720.092L885.494 720.016L885.626 720.061L884.982 719.86L884.495 719.665L884.289 719.551L884.635 719.731L883.89 719.405L883.3 719.046L883.687 719.304L882.867 718.865L882.736 718.791L881.848 718.239L881.756 718.183L880.804 717.527L880.738 717.481L879.728 716.727L879.674 716.689L878.613 715.839L878.572 715.806L877.47 714.872L877.435 714.843L876.301 713.823L876.255 713.783L873.909 711.518L873.865 711.472L871.469 708.937L871.453 708.917L824.271 656.691L824.249 656.668L821.976 654.036L821.939 653.991L819.921 651.429L819.895 651.394L818.999 650.164L818.984 650.139L818.163 648.948L818.142 648.921L817.408 647.779L817.394 647.753L816.743 646.674L816.73 646.642L816.169 645.626L816.159 645.587L815.699 644.646L815.682 644.605L815.328 643.747L815.306 643.698L815.057 642.928L815.041 642.858L814.907 642.188L814.898 642.098L814.868 641.54L814.887 641.404L814.985 640.955L815.069 640.768L815.297 640.443L818.871 641.586L818.707 641.822L818.645 642.102L818.655 642.554L818.778 643.14L819.008 643.854L819.34 644.663L819.783 645.564L820.312 646.543L820.947 647.604L821.662 648.713L822.467 649.886L823.343 651.089L825.335 653.615L827.579 656.219L874.746 708.424L877.103 710.919L879.403 713.142L880.504 714.126L881.564 715.028L882.586 715.84L883.536 716.55L884.411 717.148L885.189 717.631L885.841 717.98L886.303 718.183L886.489 718.243L886.308 718.216L885.984 718.256L885.871 718.317L885.936 718.221L886.006 717.939L885.988 717.487L885.867 716.896L885.634 716.189L885.302 715.379L884.867 714.478L884.325 713.494L883.695 712.441L882.975 711.325L882.176 710.157L881.3 708.953L879.308 706.427L877.064 703.823L829.898 651.617L827.541 649.119L825.24 646.899L824.138 645.918L823.079 645.012L822.064 644.204L821.107 643.49L820.233 642.891L819.454 642.408L818.804 642.057L818.34 641.858L818.153 641.802L818.337 641.82L818.658 641.789L818.581 641.831L815.581 640.198Z" fill="black"/>
<path d="M896.034 716.394L896.275 716.458L896.506 716.536L896.725 716.624L896.926 716.729L897.108 716.84L897.267 716.965L897.402 717.092L897.505 717.225L897.58 717.359L897.623 717.494L897.633 717.626L897.613 717.752L897.559 717.874L897.477 717.984L897.365 718.082L897.223 718.168L897.059 718.241L896.869 718.298L896.66 718.339L896.438 718.363L896.205 718.368L895.962 718.356L895.717 718.328L895.471 718.28L895.23 718.219L895 718.141L894.781 718.05L894.577 717.947L894.394 717.833L894.238 717.711L894.104 717.582L893.999 717.449L893.926 717.315L893.88 717.181L893.87 717.051L893.891 716.922L893.944 716.803L894.026 716.692L894.142 716.592L894.281 716.506L894.447 716.433L894.636 716.378L894.841 716.335L895.064 716.314L895.301 716.306L895.543 716.321L895.788 716.349L896.036 716.394M872.913 737.299L873.155 737.361L873.385 737.439L873.605 737.529L873.806 737.632L873.989 737.749L874.15 737.869L874.279 737.996L874.384 738.129L874.457 738.264L874.503 738.397L874.512 738.53L874.49 738.656L874.439 738.776L874.357 738.886L874.241 738.986L874.102 739.072L873.937 739.143L873.749 739.2L873.54 739.243L873.315 739.266L873.081 739.272L872.839 739.257L872.593 739.232L872.346 739.184L872.106 739.123L871.876 739.042L871.656 738.954L871.452 738.851L871.274 738.737L871.114 738.613L870.98 738.483L870.877 738.353L870.801 738.218L870.759 738.083L870.748 737.953L870.766 737.826L870.822 737.707L870.905 737.595L871.017 737.497L871.159 737.41L871.322 737.337L871.512 737.28L871.72 737.242L871.94 737.215L872.177 737.21L872.419 737.222L872.665 737.251L872.905 737.297L872.913 737.299ZM870.955 737.554L894.073 716.651L897.437 718.027L874.314 738.932L870.955 737.554Z" fill="black"/>
<path fill-rule="evenodd" clip-rule="evenodd" d="M723.079 553.497L725.797 551.043L794.013 626.544L791.288 629.004" fill="white"/>
<path fill-rule="evenodd" clip-rule="evenodd" d="M810.502 651.639L813.227 649.179L881.436 724.68L878.719 727.141" fill="#FFE384"/>
</g>
<g filter="url(#filter3_d_56_59)">
<path d="M988.768 610.782C1000.12 600.276 1007.13 586.032 1008.27 571.185C1009.41 556.338 1004.58 542.103 994.835 531.611C985.094 521.12 971.244 515.232 956.33 515.242C941.417 515.252 926.663 521.16 915.313 531.666L952.041 571.224L988.768 610.782Z" fill="#8E9BBD"/>
<path d="M790.723 645.055C779.392 655.581 772.402 669.835 771.292 684.682C770.182 699.53 775.043 713.754 784.805 724.225C794.567 734.697 808.43 740.559 823.346 740.521C838.261 740.483 853.006 734.548 864.338 724.022L827.531 684.539L790.723 645.055Z" fill="#8E9BBD"/>
<path d="M785.509 648.948L919.756 526.916L992.372 606.8L858.126 728.833L785.509 648.948Z" fill="#31B2F3"/>
</g>
<path d="M1423 898.002C1423 1174.14 1199.14 1398 922.999 1398C646.857 1398 422.999 1174.14 422.999 898.002C422.999 621.86 646.857 398.002 922.999 398.002C1199.14 398.002 1423 621.86 1423 898.002Z" fill="#1B57F1"/>
<defs>
<filter id="filter0_d_56_59" x="439.162" y="635.362" width="286.678" height="306.147" filterUnits="userSpaceOnUse" color-interpolation-filters="sRGB">
<feFlood flood-opacity="0" result="BackgroundImageFix"/>
<feColorMatrix in="SourceAlpha" type="matrix" values="0 0 0 0 0 0 0 0 0 0 0 0 0 0 0 0 0 0 127 0" result="hardAlpha"/>
<feOffset dy="4"/>
<feGaussianBlur stdDeviation="2"/>
<feComposite in2="hardAlpha" operator="out"/>
<feColorMatrix type="matrix" values="0 0 0 0 0 0 0 0 0 0 0 0 0 0 0 0 0 0 0.2 0"/>
<feBlend mode="normal" in2="BackgroundImageFix" result="effect1_dropShadow_56_59"/>
<feBlend mode="normal" in="SourceGraphic" in2="effect1_dropShadow_56_59" result="shape"/>
</filter>
<filter id="filter1_d_56_59" x="480.172" y="789.514" width="245.299" height="233.279" filterUnits="userSpaceOnUse" color-interpolation-filters="sRGB">
<feFlood flood-opacity="0" result="BackgroundImageFix"/>
<feColorMatrix in="SourceAlpha" type="matrix" values="0 0 0 0 0 0 0 0 0 0 0 0 0 0 0 0 0 0 127 0" result="hardAlpha"/>
<feOffset dy="4"/>
<feGaussianBlur stdDeviation="2"/>
<feComposite in2="hardAlpha" operator="out"/>
<feColorMatrix type="matrix" values="0 0 0 0 0 0 0 0 0 0 0 0 0 0 0 0 0 0 0.25 0"/>
<feBlend mode="normal" in2="BackgroundImageFix" result="effect1_dropShadow_56_59"/>
<feBlend mode="normal" in="SourceGraphic" in2="effect1_dropShadow_56_59" result="shape"/>
</filter>
<filter id="filter2_d_56_59" x="656.541" y="531.06" width="285.524" height="220.07" filterUnits="userSpaceOnUse" color-interpolation-filters="sRGB">
<feFlood flood-opacity="0" result="BackgroundImageFix"/>
<feColorMatrix in="SourceAlpha" type="matrix" values="0 0 0 0 0 0 0 0 0 0 0 0 0 0 0 0 0 0 127 0" result="hardAlpha"/>
<feOffset dy="4"/>
<feGaussianBlur stdDeviation="2"/>
<feComposite in2="hardAlpha" operator="out"/>
<feColorMatrix type="matrix" values="0 0 0 0 0 0 0 0 0 0 0 0 0 0 0 0 0 0 0.25 0"/>
<feBlend mode="normal" in2="BackgroundImageFix" result="effect1_dropShadow_56_59"/>
<feBlend mode="normal" in="SourceGraphic" in2="effect1_dropShadow_56_59" result="shape"/>
</filter>
<filter id="filter3_d_56_59" x="767.137" y="515.242" width="245.298" height="233.278" filterUnits="userSpaceOnUse" color-interpolation-filters="sRGB">
<feFlood flood-opacity="0" result="BackgroundImageFix"/>
<feColorMatrix in="SourceAlpha" type="matrix" values="0 0 0 0 0 0 0 0 0 0 0 0 0 0 0 0 0 0 127 0" result="hardAlpha"/>
<feOffset dy="4"/>
<feGaussianBlur stdDeviation="2"/>
<feComposite in2="hardAlpha" operator="out"/>
<feColorMatrix type="matrix" values="0 0 0 0 0 0 0 0 0 0 0 0 0 0 0 0 0 0 0.25 0"/>
<feBlend mode="normal" in2="BackgroundImageFix" result="effect1_dropShadow_56_59"/>
<feBlend mode="normal" in="SourceGraphic" in2="effect1_dropShadow_56_59" result="shape"/>
</filter>
<clipPath id="clip0_56_59">
<rect width="167.899" height="235.137" fill="white" transform="matrix(0.28604 -0.958217 0.976018 0.217687 660.541 691.943)"/>
</clipPath>
</defs>
</svg>
