<svg width="212" height="90" viewBox="0 0 212 90" fill="none" xmlns="http://www.w3.org/2000/svg">
<rect x="12.4856" y="52" width="48" height="34" rx="8" fill="#31B2F3"/>
<rect x="5.48563" y="7" width="3" height="24" rx="1.5" fill="#D9D9D9"/>
<rect x="63.4856" y="6" width="3" height="24" rx="1.5" fill="#D9D9D9"/>
<rect x="9.98563" y="15.5" width="52" height="37" rx="7.5" fill="#31B2F3" stroke="#55C6FF"/>
<rect x="13.4856" y="21" width="45" height="20" rx="3" fill="#1B57F1"/>
<circle cx="22.4856" cy="30" r="7" fill="white"/>
<path d="M24.5965 25.964C23.6049 25.4048 22.435 25.2522 21.3332 25.5383C20.2313 25.8244 19.2834 26.5269 18.6891 27.4979C18.0948 28.4688 17.9005 29.6325 18.147 30.7439C18.3935 31.8553 19.0616 32.8277 20.0107 33.4564C20.9598 34.085 22.1158 34.3208 23.2353 34.1142C24.3548 33.9076 25.3505 33.2747 26.0127 32.3487C26.6748 31.4227 26.9519 30.2758 26.7854 29.1497C26.619 28.0235 26.022 27.0058 25.1203 26.311L23.9137 27.8768C24.4098 28.2592 24.7382 28.8191 24.8298 29.4387C24.9214 30.0583 24.769 30.6893 24.4046 31.1988C24.0403 31.7083 23.4925 32.0565 22.8765 32.1702C22.2606 32.2839 21.6246 32.1541 21.1024 31.8082C20.5802 31.4624 20.2126 30.9274 20.0769 30.3159C19.9413 29.7044 20.0482 29.0641 20.3752 28.5299C20.7022 27.9957 21.2237 27.6092 21.83 27.4517C22.4362 27.2943 23.0799 27.3783 23.6255 27.686L24.5965 25.964Z" fill="black"/>
<circle cx="49.4856" cy="30" r="7" fill="white"/>
<path d="M51.8522 25.964C50.8606 25.4048 49.6907 25.2522 48.5889 25.5383C47.487 25.8244 46.5391 26.5269 45.9448 27.4979C45.3505 28.4688 45.1562 29.6325 45.4027 30.7439C45.6492 31.8553 46.3173 32.8277 47.2664 33.4564C48.2155 34.085 49.3715 34.3208 50.491 34.1142C51.6105 33.9076 52.6062 33.2747 53.2684 32.3487C53.9305 31.4227 54.2076 30.2758 54.0411 29.1497C53.8747 28.0235 53.2778 27.0058 52.376 26.311L51.1694 27.8768C51.6655 28.2592 51.9939 28.8191 52.0855 29.4387C52.1771 30.0583 52.0247 30.6893 51.6603 31.1988C51.296 31.7083 50.7482 32.0565 50.1323 32.1702C49.5163 32.2839 48.8803 32.1541 48.3581 31.8082C47.8359 31.4624 47.4683 30.9274 47.3327 30.3159C47.197 29.7044 47.304 29.0641 47.6309 28.5299C47.9579 27.9957 48.4794 27.6092 49.0857 27.4517C49.6919 27.2943 50.3356 27.3783 50.8812 27.686L51.8522 25.964Z" fill="black"/>
<path d="M39.0029 35.5C39.2695 35.5 39.4916 35.7207 39.4127 35.9754C39.262 36.4615 38.8824 36.9126 38.3141 37.2678C37.5639 37.7366 36.5465 38 35.4856 38C34.4248 38 33.4073 37.7366 32.6572 37.2678C32.0889 36.9126 31.7092 36.4615 31.5586 35.9754C31.4797 35.7207 31.7018 35.5 31.9684 35.5C32.235 35.5 32.4449 35.7235 32.5459 35.9703C32.6798 36.297 32.9519 36.5985 33.3399 36.8411C33.909 37.1967 34.6808 37.3965 35.4856 37.3965C36.2904 37.3965 37.0622 37.1967 37.6313 36.8411C38.0194 36.5985 38.2915 36.297 38.4253 35.9703C38.5264 35.7235 38.7362 35.5 39.0029 35.5Z" fill="white"/>
<path d="M61.4856 42.0534C63.4677 42.0534 65.3686 41.2604 66.7701 39.8489C68.1716 38.4373 68.959 36.5229 68.959 34.5267C68.959 32.5305 68.1716 30.616 66.7701 29.2045C65.3686 27.793 63.4677 27 61.4856 27L61.4856 34.5267V42.0534Z" fill="#1B57F1"/>
<path d="M10.459 27C8.47695 27 6.57605 27.793 5.17451 29.2045C3.77297 30.616 2.9856 32.5305 2.9856 34.5267C2.9856 36.5229 3.77297 38.4373 5.17451 39.8489C6.57605 41.2604 8.47695 42.0534 10.459 42.0534L10.459 34.5267V27Z" fill="#1B57F1"/>
<path d="M10.9856 4.5C10.9856 6.70914 9.19477 8.5 6.98563 8.5C4.77649 8.5 2.98563 6.70914 2.98563 4.5C2.98563 2.29086 4.77649 0.5 6.98563 0.5C9.19477 0.5 10.9856 2.29086 10.9856 4.5Z" fill="#1B57F1"/>
<path d="M68.9856 4C68.9856 6.20914 67.1948 8 64.9856 8C62.7765 8 60.9856 6.20914 60.9856 4C60.9856 1.79086 62.7765 0 64.9856 0C67.1948 0 68.9856 1.79086 68.9856 4Z" fill="#1B57F1"/>
<path d="M81.9496 63V39.64H89.7256C91.2829 39.64 92.6376 39.9387 93.7896 40.536C94.9629 41.1333 95.8696 41.976 96.5096 43.064C97.1496 44.1307 97.4696 45.3893 97.4696 46.84C97.4696 48.2693 97.1389 49.528 96.4776 50.616C95.8376 51.704 94.9416 52.5467 93.7896 53.144C92.6376 53.7413 91.2829 54.04 89.7256 54.04H85.9496V63H81.9496ZM85.9496 50.424H89.7256C90.8349 50.424 91.7203 50.104 92.3816 49.464C93.0643 48.8027 93.4056 47.928 93.4056 46.84C93.4056 45.7307 93.0643 44.856 92.3816 44.216C91.7203 43.576 90.8349 43.256 89.7256 43.256H85.9496V50.424ZM101.681 63V45.4H105.457V48.76H106.449L105.265 50.808C105.265 48.9093 105.692 47.48 106.545 46.52C107.398 45.56 108.657 45.08 110.321 45.08C112.22 45.08 113.713 45.6667 114.801 46.84C115.889 48.0133 116.433 49.6347 116.433 51.704V52.984H112.241V51.992C112.241 50.8613 111.942 49.9867 111.345 49.368C110.769 48.7493 109.969 48.44 108.945 48.44C107.9 48.44 107.089 48.7493 106.513 49.368C105.958 49.9867 105.681 50.8613 105.681 51.992V63H101.681ZM127.461 63.288C125.967 63.288 124.666 63.0107 123.557 62.456C122.469 61.88 121.615 61.08 120.997 60.056C120.399 59.0107 120.101 57.784 120.101 56.376V52.024C120.101 50.616 120.399 49.4 120.997 48.376C121.615 47.3307 122.469 46.5307 123.557 45.976C124.666 45.4 125.967 45.112 127.461 45.112C128.975 45.112 130.277 45.4 131.365 45.976C132.453 46.5307 133.295 47.3307 133.893 48.376C134.511 49.4 134.821 50.6053 134.821 51.992V56.376C134.821 57.784 134.511 59.0107 133.893 60.056C133.295 61.08 132.453 61.88 131.365 62.456C130.277 63.0107 128.975 63.288 127.461 63.288ZM127.461 59.8C128.527 59.8 129.349 59.512 129.925 58.936C130.522 58.3387 130.821 57.4853 130.821 56.376V52.024C130.821 50.8933 130.522 50.04 129.925 49.464C129.349 48.888 128.527 48.6 127.461 48.6C126.415 48.6 125.594 48.888 124.997 49.464C124.399 50.04 124.101 50.8933 124.101 52.024V56.376C124.101 57.4853 124.399 58.3387 124.997 58.936C125.594 59.512 126.415 59.8 127.461 59.8Z" fill="#1B57F1"/>
<path d="M139.512 63V39.64H146.68C148.941 39.64 150.733 40.184 152.056 41.272C153.379 42.3387 154.04 43.8 154.04 45.656C154.04 46.7013 153.805 47.608 153.336 48.376C152.867 49.144 152.227 49.7413 151.416 50.168C150.627 50.5947 149.709 50.808 148.664 50.808V50.68C149.795 50.6587 150.797 50.872 151.672 51.32C152.568 51.7467 153.272 52.3867 153.784 53.24C154.317 54.0933 154.584 55.128 154.584 56.344C154.584 57.688 154.275 58.8613 153.656 59.864C153.037 60.8667 152.163 61.6453 151.032 62.2C149.923 62.7333 148.589 63 147.032 63H139.512ZM143.416 59.672H146.776C147.949 59.672 148.867 59.3627 149.528 58.744C150.211 58.104 150.552 57.24 150.552 56.152C150.552 55.064 150.211 54.1893 149.528 53.528C148.867 52.8453 147.949 52.504 146.776 52.504H143.416V59.672ZM143.416 49.272H146.616C147.683 49.272 148.515 48.9947 149.112 48.44C149.731 47.864 150.04 47.0853 150.04 46.104C150.04 45.1227 149.731 44.3547 149.112 43.8C148.515 43.2453 147.683 42.968 146.616 42.968H143.416V49.272ZM165.836 63.288C164.342 63.288 163.041 63.0107 161.932 62.456C160.844 61.88 159.99 61.08 159.372 60.056C158.774 59.0107 158.476 57.784 158.476 56.376V52.024C158.476 50.616 158.774 49.4 159.372 48.376C159.99 47.3307 160.844 46.5307 161.932 45.976C163.041 45.4 164.342 45.112 165.836 45.112C167.35 45.112 168.652 45.4 169.74 45.976C170.828 46.5307 171.67 47.3307 172.268 48.376C172.886 49.4 173.196 50.6053 173.196 51.992V56.376C173.196 57.784 172.886 59.0107 172.268 60.056C171.67 61.08 170.828 61.88 169.74 62.456C168.652 63.0107 167.35 63.288 165.836 63.288ZM165.836 59.8C166.902 59.8 167.724 59.512 168.3 58.936C168.897 58.3387 169.196 57.4853 169.196 56.376V52.024C169.196 50.8933 168.897 50.04 168.3 49.464C167.724 48.888 166.902 48.6 165.836 48.6C164.79 48.6 163.969 48.888 163.372 49.464C162.774 50.04 162.476 50.8933 162.476 52.024V56.376C162.476 57.4853 162.774 58.3387 163.372 58.936C163.969 59.512 164.79 59.8 165.836 59.8ZM186.943 63C185.258 63 183.935 62.5307 182.975 61.592C182.036 60.6533 181.567 59.3627 181.567 57.72V49.016H176.799V45.4H181.567V40.44H185.599V45.4H192.351V49.016H185.599V57.72C185.599 58.8293 186.143 59.384 187.231 59.384H192.031V63H186.943Z" fill="white"/>
<g filter="url(#filter0_d_160_38)">
<rect x="23.1667" y="54.4762" width="1.66667" height="9.71429" fill="#D9D9D9"/>
<rect x="23.1667" y="64.1905" width="1.66667" height="17.8095" fill="#5A5656"/>
<path d="M24 48L25.4695 50.8924L28.7553 51.3562L26.3776 53.6076L26.9389 56.7867L24 55.2857L21.0611 56.7867L21.6224 53.6076L19.2447 51.3562L22.5305 50.8924L24 48Z" fill="#FBB94E"/>
<line x1="26.1116" y1="49.9116" x2="28.9401" y2="47.0832" stroke="#FBB94E" stroke-width="0.25"/>
<line x1="29" y1="51.875" x2="32" y2="51.875" stroke="#FBB94E" stroke-width="0.25"/>
<line x1="24.005" y1="47" x2="24.005" y2="44" stroke="#FBB94E" stroke-width="0.25"/>
<line x1="16" y1="51.875" x2="19" y2="51.875" stroke="#FBB94E" stroke-width="0.25"/>
<line x1="21.9116" y1="49.9168" x2="19.0832" y2="47.0884" stroke="#FBB94E" stroke-width="0.25"/>
<line x1="31.4912" y1="55.9583" x2="27.9271" y2="54.1423" stroke="#FBB94E" stroke-width="0.25"/>
<line x1="20.0528" y1="54.1133" x2="16.4276" y2="55.8038" stroke="#FBB94E" stroke-width="0.25"/>
</g>
<g filter="url(#filter1_d_160_38)">
<path d="M25.7359 77.9268C27.1779 77.9128 28.5552 77.3265 29.5649 76.2969C30.5745 75.2673 31.1338 73.8788 31.1198 72.4369C31.1057 70.9949 30.5194 69.6176 29.4898 68.608C28.4603 67.5983 27.0718 67.039 25.6298 67.0531L25.6829 72.49L25.7359 77.9268Z" fill="#8E9BBD"/>
<path d="M9.92241 67.0632C8.48049 67.08 7.10428 67.6689 6.09654 68.7003C5.0888 69.7318 4.53208 71.1213 4.54885 72.5632C4.56561 74.0051 5.15449 75.3813 6.18594 76.3891C7.21739 77.3968 8.60692 77.9536 10.0488 77.9368L9.98563 72.5L9.92241 67.0632Z" fill="#8E9BBD"/>
<rect x="9.31863" y="67" width="16.9156" height="10.8743" fill="#31B2F3"/>
</g>
<g clip-path="url(#clip0_160_38)" filter="url(#filter2_d_160_38)">
<path fill-rule="evenodd" clip-rule="evenodd" d="M47.8286 52.5987L48.6835 52.6011L48.8492 54.3139L48.6766 55.0729L48.648 65.1555L47.7933 65.1533L47.8216 55.0703L47.6527 54.3099L47.8286 52.5987Z" fill="#D7D7D7"/>
<path d="M47.7559 52.4333L48.6108 52.4357L48.6085 52.436L48.6239 52.437L48.6398 52.4412L48.6568 52.4485L48.674 52.4586L48.692 52.4711L48.7093 52.4863L48.7263 52.5035L48.7422 52.5229L48.7577 52.543L48.7712 52.5649L48.7832 52.5871L48.7931 52.6098L48.8019 52.6321L48.8079 52.6538L48.811 52.675L48.8122 52.6944L48.8115 52.7121L48.8119 52.6789L48.9778 54.3918L48.9708 54.4477L48.9759 54.433L48.8057 55.1806L48.7768 65.2501L48.7654 65.2967L48.7568 65.3073L48.7462 65.315L48.7207 65.321L47.8659 65.3189L47.8675 65.3187L47.8528 65.3176L47.8369 65.3133L47.8196 65.3057L47.8019 65.296L47.7847 65.2834L47.7671 65.2678L47.7504 65.2509L47.734 65.2321L47.7186 65.211L47.7053 65.1894L47.6932 65.167L47.683 65.145L47.6748 65.1224L47.669 65.1009L47.665 65.0797L47.6637 65.0601L47.665 65.042L47.6686 65.0274L47.6639 65.0592L47.6924 54.9953L47.5287 54.2567L47.526 54.1911L47.5312 54.1764L47.5248 54.203L47.7001 52.4921L47.7148 52.4519L47.7238 52.4431L47.7354 52.437L47.7559 52.4333L48.6108 52.4357L48.7559 52.7664L47.951 52.764L47.7838 54.393L47.9457 55.1238L47.9488 55.1839L47.9509 55.1644L47.9226 64.9888L48.5188 64.9899L48.5474 54.979L48.55 54.9541L48.7186 54.2127L48.5787 52.7659L47.9012 52.7641L47.7559 52.4333Z" fill="black"/>
<path fill-rule="evenodd" clip-rule="evenodd" d="M48.2172 66.3502C49.1549 66.3526 49.9243 67.1451 49.9217 68.1053L49.8954 77.4148C49.8928 78.3754 49.1188 79.1633 48.1808 79.1608C47.2432 79.1581 46.4737 78.3657 46.4761 77.4053L46.5027 68.0956C46.5055 67.1357 47.2797 66.3476 48.2175 66.3504" fill="#FFC425"/>
<path d="M48.148 66.1849L48.3214 66.1947L48.3298 66.1949L48.4985 66.2226L48.5086 66.2242L48.6717 66.2685L48.6829 66.2718L48.8393 66.3321L48.8526 66.3373L49.0019 66.4119L49.0165 66.4205L49.1579 66.5093L49.1747 66.5212L49.3065 66.6229L49.2804 66.6055L49.3263 66.6394L49.448 66.7533L49.4239 66.7339L49.4687 66.775L49.5788 66.8999L49.5654 66.8856L49.5823 66.9041L49.6 66.9261L49.6983 67.0619L49.7023 67.0667L49.7165 67.0885L49.718 67.0908L49.8035 67.2357L49.8221 67.2719L49.8312 67.2946L49.8199 67.266L49.8912 67.4193L49.9126 67.4798L49.9034 67.4482L49.9604 67.6084L49.9749 67.6784L49.9683 67.6344L50.0104 67.8019L50.0149 67.8226L50.0403 67.9961L50.042 68.0138L50.0507 68.1916L50.0506 68.199L50.0244 77.5092L50.0243 77.5158L50.0146 77.6933L50.0137 77.7054L49.9872 77.8783L49.9851 77.8878L49.9422 78.0542L49.9398 78.0623L49.8814 78.2224L49.8792 78.2287L49.8061 78.3812L49.8034 78.3871L49.7171 78.531L49.7141 78.5354L49.6146 78.6698L49.612 78.674L49.5008 78.798L49.4973 78.8011L49.3754 78.9142L49.3721 78.9172L49.2399 79.0181L49.2362 79.0205L49.0953 79.1083L49.0908 79.1104L48.9412 79.1842L48.937 79.1861L48.78 79.245L48.7754 79.2464L48.6116 79.2893L48.6061 79.2904L48.4374 79.3169L48.4306 79.3172L48.2573 79.3262L48.2499 79.3261L48.0763 79.3164L48.0677 79.3154L47.8989 79.2879L47.8891 79.2861L47.7263 79.2424L47.7149 79.2383L47.5584 79.179L47.5451 79.1729L47.3965 79.0987L47.3809 79.09L47.2402 79.0016L47.2226 78.9893L47.0912 78.8875L47.1171 78.9049L47.0715 78.8708L46.9504 78.7573L46.974 78.7771L46.9293 78.7358L46.8187 78.6105L46.8322 78.6247L46.8158 78.6067L46.7976 78.5842L46.6995 78.4491L46.6956 78.4435L46.6817 78.4222L46.6802 78.4199L46.5944 78.2753L46.5758 78.2391L46.5666 78.2164L46.5783 78.2448L46.5065 78.0918L46.4851 78.0312L46.4944 78.0628L46.4368 77.9022L46.423 77.8326L46.4293 77.8768L46.3872 77.7093L46.3828 77.6876L46.3576 77.5149L46.3557 77.4973L46.3475 77.3192L46.347 77.3113L46.3735 68.0017L46.3738 67.995L46.383 67.817L46.3843 67.8055L46.4107 67.6327L46.4127 67.6232L46.4557 67.4568L46.4581 67.4486L46.516 67.2881L46.5189 67.2821L46.5915 67.1291L46.5944 67.1239L46.6808 66.98L46.684 66.9755L46.7833 66.8412L46.786 66.8369L46.8972 66.7128L46.9006 66.7098L47.0226 66.5967L47.0263 66.5935L47.158 66.4928L47.1621 66.4902L47.303 66.4024L47.3068 66.4008L47.4564 66.3262L47.4606 66.3251L47.6178 66.266L47.6226 66.2645L47.7863 66.2217L47.7916 66.2198L47.9607 66.194L47.9668 66.1933L48.1406 66.1848L48.2936 66.515L48.1222 66.5235L47.9599 66.5483L47.8013 66.5902L47.6495 66.6475L47.5039 66.7194L47.367 66.8046L47.2383 66.9024L47.1197 67.0125L47.0122 67.1333L46.9156 67.2634L46.8323 67.4029L46.762 67.5495L46.7062 67.703L46.6657 67.862L46.6404 68.0243L46.6317 68.1929L46.6054 77.4958L46.613 77.6612L46.6356 77.8144L46.6715 77.958L46.7192 78.0915L46.7773 78.215L46.8449 78.329L46.9233 78.4367L47.0123 78.5376L47.1128 78.6317L47.2257 78.7187L47.3503 78.7971L47.485 78.8641L47.6296 78.9197L47.782 78.9604L47.9421 78.9863L48.1078 78.9953L48.2749 78.9871L48.4383 78.9617L48.596 78.9203L48.7487 78.8633L48.8938 78.7917L49.0311 78.7062L49.1598 78.6085L49.2782 78.4985L49.3859 78.3775L49.4824 78.2475L49.5658 78.1079L49.6355 77.9609L49.6914 77.8074L49.7321 77.649L49.7571 77.4861L49.7662 77.318L49.7924 68.0152L49.7846 67.85L49.762 67.696L49.7258 67.5525L49.6781 67.419L49.6204 67.2953L49.5527 67.1814L49.4746 67.0742L49.3858 66.9732L49.2852 66.8791L49.1717 66.7918L49.0473 66.714L48.9129 66.646L48.7683 66.5912L48.6154 66.5501L48.4562 66.5245L48.2862 66.5149L48.148 66.1849Z" fill="black"/>
<path fill-rule="evenodd" clip-rule="evenodd" d="M47.5405 65.1601L48.908 65.1637L48.9056 65.9326L47.5381 65.929" fill="black"/>
<path d="M47.4639 64.9873L48.8314 64.9909L48.8293 64.9915L48.8445 64.9922L48.8604 64.9966L48.8773 65.0036L48.8955 65.0139L48.9126 65.0264L48.9302 65.042L48.9469 65.0589L48.9633 65.0777L48.9783 65.0982L48.992 65.1205L49.0037 65.1423L49.0143 65.1648L49.0225 65.1874L49.0287 65.2095L49.0323 65.2301L49.0333 65.2491L49.0319 65.2672L49.0285 65.2833L49.0331 65.2501L49.0312 66.0186L49.0191 66.0666L49.011 66.0768L49.0011 66.0841L48.9749 66.0905L47.6071 66.0863L47.6095 66.0863L47.5939 66.085L47.5784 66.0813L47.5611 66.0737L47.5439 66.0636L47.5262 66.0514L47.5086 66.0358L47.4915 66.0183L47.4757 65.9992L47.4601 65.979L47.4468 65.9574L47.4347 65.935L47.4241 65.9124L47.416 65.8899L47.4101 65.8683L47.4065 65.8477L47.4052 65.8281L47.4065 65.8101L47.4097 65.7949L47.4054 65.8272L47.4078 65.0583L47.4193 65.0106L47.4274 65.0004L47.4374 64.9931L47.4639 64.9873L48.8314 64.9909L48.9773 65.3216L47.6654 65.3178L47.6641 65.7568L48.773 65.7594L48.7737 65.3209L47.6095 65.3174L47.4639 64.9873Z" fill="black"/>
<path fill-rule="evenodd" clip-rule="evenodd" d="M47.1068 65.9194L49.2442 65.9256L49.4126 66.6954L46.9339 66.6881L47.1068 65.9194Z" fill="#AAAAAA"/>
<path d="M47.0345 65.7544L49.1713 65.761L49.1694 65.7606L49.1841 65.7617L49.2 65.7661L49.2172 65.7737L49.235 65.7834L49.2522 65.7959L49.2703 65.8111L49.2871 65.8281L49.3029 65.8472L49.3182 65.8683L49.3321 65.8896L49.3437 65.9124L49.3539 65.9343L49.362 65.9569L49.3683 65.979L49.3719 65.9996L49.3728 66.0186L49.3681 65.98L49.5368 66.7487L49.5393 66.8142L49.5342 66.829L49.5272 66.8409L49.5178 66.8503L49.5071 66.8565L49.4856 66.8599L47.0067 66.8535L47.0086 66.8531L46.9937 66.8522L46.9776 66.848L46.9603 66.8404L46.9434 66.831L46.9254 66.8181L46.9082 66.8031L46.891 66.7856L46.8749 66.7667L46.8601 66.746L46.846 66.7241L46.8341 66.7024L46.8238 66.6796L46.8157 66.657L46.81 66.6354L46.8059 66.6143L46.8049 66.5953L46.806 66.5774L46.8093 66.5613L46.8157 66.5481L46.8073 66.5691L46.9806 65.8011L46.9973 65.7689L47.0069 65.761L47.0345 65.7544L49.1713 65.761L49.3169 66.0911L47.2231 66.0852L47.1242 66.5239L49.2637 66.5296L49.1677 66.0909L47.1796 66.0849L47.0345 65.7544Z" fill="black"/>
<path fill-rule="evenodd" clip-rule="evenodd" d="M47.3705 67.5434C47.5642 67.5442 47.7215 68.3346 47.7187 69.2949L47.6982 76.3838C47.6956 77.344 47.5339 78.1339 47.3402 78.1332C47.1462 78.1327 46.9891 77.342 46.9917 76.3818L47.0119 69.2924C47.0146 68.3325 47.1769 67.5429 47.3706 67.5436" fill="#5F6062"/>
<path d="M47.318 67.3811L47.3541 67.3903L47.3429 67.3878L47.3586 67.3915L47.412 67.4206L47.4465 67.4472L47.4203 67.4299L47.4382 67.4411L47.4556 67.4544L47.4726 67.4703L47.5021 67.5035L47.5358 67.547L47.5341 67.5449L47.5494 67.566L47.5628 67.5876L47.5747 67.6093L47.5684 67.597L47.6006 67.6563L47.6219 67.7038L47.629 67.7262L47.6164 67.6894L47.6469 67.7637L47.6655 67.831L47.6551 67.7854L47.6838 67.8732L47.6885 67.8881L47.7152 67.9894L47.7179 67.9999L47.7425 68.1133L47.7442 68.1212L47.7665 68.2459L47.7679 68.2523L47.7875 68.387L47.7886 68.3928L47.806 68.5371L47.8066 68.5416L47.8208 68.6945L47.8216 68.7005L47.8415 69.0282L47.8415 69.0347L47.8475 69.3854L47.8477 69.3886L47.8278 76.4779L47.8272 76.4807L47.8192 76.8315L47.8192 76.8373L47.7975 77.165L47.7972 77.1694L47.7817 77.3219L47.7815 77.3245L47.7632 77.4691L47.7627 77.4719L47.742 77.6066L47.7415 77.6102L47.7181 77.7344L47.7177 77.7379L47.6922 77.8512L47.691 77.8553L47.6634 77.9559L47.6624 77.9607L47.6331 78.0486L47.6311 78.054L47.5998 78.1276L47.5969 78.1344L47.5645 78.1932L47.5594 78.2006L47.5255 78.244L47.5166 78.2531L47.4813 78.2794L47.4636 78.2876L47.4278 78.297L47.4228 78.2979L47.3922 78.2957L47.3567 78.2869L47.3678 78.2887L47.3519 78.2851L47.299 78.2565L47.2641 78.2293L47.29 78.2468L47.2728 78.236L47.2549 78.2223L47.2378 78.2064L47.2083 78.1732L47.1748 78.1295L47.1765 78.1316L47.1612 78.1113L47.1476 78.0891L47.1358 78.0673L47.1422 78.0795L47.1098 78.0204L47.0887 77.9727L47.0818 77.951L47.0943 77.9871L47.0634 77.913L47.0453 77.8462L47.0556 77.8919L47.0267 77.8035L47.0225 77.789L46.9951 77.6873L46.9927 77.6766L46.9678 77.5634L46.9662 77.5555L46.9438 77.4308L46.9427 77.4242L46.9228 77.2898L46.9222 77.2844L46.905 77.14L46.9044 77.1355L46.8896 76.9822L46.8892 76.9767L46.8696 76.6488L46.8695 76.6424L46.8629 76.2912L46.8629 76.288L46.8829 69.1986L46.883 69.1961L46.8912 68.8451L46.8914 68.8393L46.913 68.5115L46.9136 68.5079L46.929 68.3553L46.9292 68.352L46.9472 68.2076L46.9477 68.2047L46.9686 68.0699L46.9692 68.0671L46.9923 67.9423L46.9929 67.9386L47.0185 67.8253L47.0192 67.8216L47.047 67.7207L47.0481 67.716L47.0775 67.628L47.0799 67.6231L47.1107 67.549L47.1139 67.5428L47.1463 67.484L47.1513 67.4759L47.1851 67.4326L47.1942 67.4242L47.2292 67.3972L47.2468 67.389L47.2826 67.3796L47.458 67.7067L47.4317 67.7132L47.4097 67.73L47.3823 67.7651L47.3537 67.8173L47.3257 67.8855L47.2976 67.9685L47.2711 68.0652L47.2463 68.1747L47.2238 68.2959L47.2034 68.4279L47.1856 68.5697L47.1708 68.7186L47.1491 69.0414L47.1412 69.3881L47.1208 76.4744L47.1272 76.8208L47.1466 77.1422L47.1605 77.2896L47.1775 77.4292L47.1965 77.5585L47.2177 77.6757L47.2407 77.7802L47.264 77.8682L47.287 77.9384L47.3066 77.9854L47.3154 78.0018L47.3047 77.9883L47.28 77.9692L47.2685 77.9661L47.2788 77.9634L47.301 77.9465L47.3279 77.9118L47.3565 77.8595L47.3854 77.7916L47.4129 77.7081L47.4394 77.6114L47.4642 77.5019L47.4869 77.3806L47.507 77.2488L47.5249 77.1077L47.5398 76.958L47.5613 76.6353L47.5697 76.2891L47.5896 69.2022L47.5831 68.856L47.5638 68.5344L47.5499 68.3871L47.5333 68.248L47.5139 68.1182L47.4927 68.001L47.4701 67.897L47.4465 67.8084L47.4235 67.7382L47.4039 67.6912L47.3951 67.6748L47.4055 67.6885L47.4308 67.708L47.4224 67.7054L47.318 67.3811Z" fill="black"/>
<path fill-rule="evenodd" clip-rule="evenodd" d="M48.994 67.548C49.1878 67.5484 49.345 68.3392 49.3424 69.2994L49.3228 76.3885C49.3201 77.3488 49.1583 78.1385 48.9644 78.1381C48.7706 78.1376 48.6134 77.3469 48.6161 76.3867L48.6364 69.2972C48.6396 68.3369 48.8006 67.5474 48.9943 67.548" fill="#5F6062"/>
<path d="M48.942 67.3854L48.9783 67.3945L48.9669 67.3921L48.983 67.3955L49.0358 67.425L49.0707 67.4522L49.0443 67.4342L49.0622 67.4454L49.0796 67.4595L49.0971 67.4751L49.1263 67.5085L49.1603 67.5518L49.1582 67.5499L49.1732 67.5704L49.1871 67.5917L49.1992 67.6141L49.1929 67.6018L49.225 67.6612L49.2462 67.7088L49.253 67.7305L49.2408 67.6942L49.2713 67.7686L49.2894 67.8354L49.2792 67.7896L49.3082 67.878L49.312 67.8927L49.3393 67.9936L49.3415 68.0045L49.3668 68.1174L49.3684 68.1262L49.3909 68.2499L49.3914 68.2569L49.4121 68.3917L49.413 68.3968L49.4296 68.5416L49.4301 68.5462L49.4451 68.6986L49.4452 68.705L49.4649 69.0329L49.465 69.0394L49.4719 69.3903L49.4713 69.3932L49.4515 76.4823L49.4517 76.4855L49.4435 76.8364L49.4432 76.8423L49.4215 77.1693L49.4211 77.1737L49.4057 77.3262L49.4056 77.3296L49.3875 77.474L49.3871 77.4767L49.3661 77.6116L49.3656 77.6144L49.3424 77.7393L49.3414 77.7423L49.3162 77.8562L49.3151 77.8594L49.2877 77.9608L49.2863 77.965L49.2568 78.053L49.255 78.0583L49.2241 78.1325L49.221 78.1386L49.1883 78.1976L49.1835 78.2056L49.1493 78.2484L49.1405 78.2574L49.1056 78.2843L49.0879 78.2925L49.0523 78.3018L49.0471 78.3027L49.0167 78.3004L48.9806 78.2912L48.9919 78.2937L48.9761 78.2901L48.9227 78.261L48.8882 78.2343L48.9143 78.2517L48.8965 78.2404L48.8793 78.227L48.8616 78.2107L48.8322 78.1775L48.7986 78.1339L48.8002 78.1361L48.7853 78.1155L48.7719 78.0939L48.7597 78.0716L48.766 78.0839L48.7341 78.0252L48.7127 77.9778L48.7057 77.9553L48.7183 77.9921L48.6873 77.9173L48.6691 77.8506L48.6797 77.8961L48.6506 77.8078L48.6462 77.7935L48.6195 77.6921L48.6167 77.6816L48.5921 77.5683L48.5905 77.5604L48.5681 77.4357L48.5668 77.4292L48.5469 77.294L48.5461 77.2888L48.5287 77.1445L48.5281 77.14L48.5138 76.9871L48.5131 76.981L48.4933 76.6533L48.4932 76.6468L48.4869 76.2955L48.487 76.293L48.5072 69.2035L48.5071 69.2003L48.5154 68.8501L48.5156 68.8442L48.5371 68.5166L48.5375 68.5122L48.5528 68.3598L48.5534 68.3569L48.5714 68.2125L48.5716 68.2091L48.5926 68.0742L48.5932 68.0714L48.616 67.9468L48.6172 67.9436L48.6421 67.8298L48.6439 67.8262L48.6712 67.7249L48.6726 67.7207L48.702 67.6328L48.7036 67.6276L48.7346 67.5534L48.7379 67.5471L48.7707 67.4881L48.7757 67.4807L48.8087 67.4371L48.8185 67.4283L48.8534 67.4014L48.871 67.3932L48.907 67.3845L49.0819 67.7118L49.0558 67.7182L49.0339 67.7349L49.0064 67.7693L48.9781 67.8213L48.9492 67.8901L48.9213 67.9729L48.8954 68.0701L48.8705 68.1789L48.8477 68.301L48.8275 68.4321L48.8095 68.574L48.7945 68.7231L48.7735 69.0463L48.765 69.3925L48.7451 76.4793L48.7513 76.825L48.7706 77.1465L48.7848 77.2945L48.8013 77.4336L48.821 77.5633L48.842 77.6806L48.8648 77.7844L48.8883 77.8732L48.9113 77.9433L48.9305 77.9898L48.9395 78.0068L48.9287 77.9925L48.9038 77.9736L48.8922 77.9705L48.9027 77.9677L48.9253 77.9514L48.9524 77.9165L48.9811 77.8643L49.0093 77.7959L49.0372 77.713L49.0637 77.6163L49.0881 77.5062L49.1106 77.3851L49.1309 77.2531L49.1491 77.1119L49.1641 76.9628L49.1851 76.6396L49.1936 76.2934L49.2136 69.2065L49.2077 68.8607L49.1882 68.5393L49.1737 68.3915L49.1574 68.2522L49.138 68.1232L49.1168 68.0052L49.0941 67.9013L49.0706 67.8126L49.0478 67.7423L49.0283 67.6961L49.0189 67.6792L49.0304 67.693L49.0545 67.7125L49.0466 67.7103L48.942 67.3854Z" fill="black"/>
<path d="M49.714 78.5157L49.7267 78.5369L49.7377 78.5583L49.7473 78.5797L49.7546 78.6012L49.7602 78.6218L49.7634 78.6419L49.7647 78.6605L49.7635 78.6773L49.7602 78.6925L49.7547 78.7054L49.7472 78.7159L49.7378 78.7239L49.7265 78.7294L49.7139 78.732L49.7 78.7317L49.6849 78.7286L49.6689 78.7229L49.6523 78.7143L49.6353 78.7031L49.6185 78.6899L49.6021 78.6745L49.5861 78.6571L49.5709 78.6384L49.5569 78.6181L49.5441 78.5973L49.5332 78.5759L49.5237 78.5543L49.5161 78.5328L49.5107 78.5119L49.5075 78.4923L49.5064 78.4735L49.5075 78.4565L49.5108 78.4416L49.5161 78.4285L49.5235 78.4181L49.5331 78.4099L49.5442 78.4046L49.5568 78.4019L49.5711 78.4023L49.5861 78.4053L49.6021 78.4111L49.6186 78.4199L49.6355 78.4305L49.6522 78.4441L49.669 78.4596L49.6848 78.4771L49.6999 78.4957L49.7142 78.5159M46.8078 78.5073L46.8206 78.5284L46.8316 78.5498L46.841 78.5714L46.8485 78.5927L46.8538 78.6138L46.8574 78.6337L46.8583 78.6519L46.8572 78.6689L46.8538 78.6839L46.8486 78.6969L46.8409 78.7075L46.8315 78.7154L46.8205 78.7209L46.8079 78.7235L46.7937 78.7231L46.7786 78.7201L46.7628 78.7142L46.7463 78.7058L46.7292 78.6947L46.7122 78.6812L46.6957 78.6659L46.6799 78.6483L46.6645 78.6297L46.6505 78.6094L46.6377 78.5887L46.6269 78.567L46.6173 78.5456L46.6097 78.524L46.6045 78.5035L46.6013 78.4834L46.6002 78.4647L46.6012 78.448L46.6044 78.4328L46.61 78.4199L46.6174 78.4094L46.6266 78.4011L46.6379 78.3961L46.6507 78.3933L46.6646 78.3936L46.6798 78.3968L46.6957 78.4024L46.7123 78.411L46.729 78.4223L46.746 78.4352L46.7625 78.4509L46.7785 78.4682L46.7937 78.487L46.8074 78.5067L46.8078 78.5073ZM46.6567 78.3937L49.5627 78.402L49.7085 78.7325L46.8021 78.724L46.6567 78.3937Z" fill="black"/>
<path fill-rule="evenodd" clip-rule="evenodd" d="M47.9976 54.6556L48.3391 54.6569L48.3104 64.9064L47.9681 64.9051" fill="white"/>
<path fill-rule="evenodd" clip-rule="evenodd" d="M47.8741 67.894L48.2164 67.8953L48.1873 78.1443L47.8454 78.1436" fill="#FFE384"/>
</g>
<g filter="url(#filter3_d_160_38)">
<path d="M62.7359 76.9268C64.1779 76.9127 65.5552 76.3264 66.5649 75.2969C67.5745 74.2673 68.1338 72.8788 68.1198 71.4369C68.1057 69.9949 67.5194 68.6176 66.4898 67.6079C65.4603 66.5983 64.0718 66.039 62.6298 66.053L62.6829 71.4899L62.7359 76.9268Z" fill="#8E9BBD"/>
<path d="M46.9224 66.0632C45.4805 66.08 44.1043 66.6688 43.0965 67.7003C42.0888 68.7317 41.5321 70.1213 41.5488 71.5632C41.5656 73.0051 42.1545 74.3813 43.1859 75.3891C44.2174 76.3968 45.6069 76.9535 47.0488 76.9368L46.9856 71.5L46.9224 66.0632Z" fill="#8E9BBD"/>
<path d="M46.3186 66H63.2342V76.8743H46.3186V66Z" fill="#31B2F3"/>
</g>
<defs>
<filter id="filter0_d_160_38" x="12" y="44" width="24" height="46" filterUnits="userSpaceOnUse" color-interpolation-filters="sRGB">
<feFlood flood-opacity="0" result="BackgroundImageFix"/>
<feColorMatrix in="SourceAlpha" type="matrix" values="0 0 0 0 0 0 0 0 0 0 0 0 0 0 0 0 0 0 127 0" result="hardAlpha"/>
<feOffset dy="4"/>
<feGaussianBlur stdDeviation="2"/>
<feComposite in2="hardAlpha" operator="out"/>
<feColorMatrix type="matrix" values="0 0 0 0 0 0 0 0 0 0 0 0 0 0 0 0 0 0 0.2 0"/>
<feBlend mode="normal" in2="BackgroundImageFix" result="effect1_dropShadow_160_38"/>
<feBlend mode="normal" in="SourceGraphic" in2="effect1_dropShadow_160_38" result="shape"/>
</filter>
<filter id="filter1_d_160_38" x="0.548492" y="67" width="34.5715" height="18.9372" filterUnits="userSpaceOnUse" color-interpolation-filters="sRGB">
<feFlood flood-opacity="0" result="BackgroundImageFix"/>
<feColorMatrix in="SourceAlpha" type="matrix" values="0 0 0 0 0 0 0 0 0 0 0 0 0 0 0 0 0 0 127 0" result="hardAlpha"/>
<feOffset dy="4"/>
<feGaussianBlur stdDeviation="2"/>
<feComposite in2="hardAlpha" operator="out"/>
<feColorMatrix type="matrix" values="0 0 0 0 0 0 0 0 0 0 0 0 0 0 0 0 0 0 0.25 0"/>
<feBlend mode="normal" in2="BackgroundImageFix" result="effect1_dropShadow_160_38"/>
<feBlend mode="normal" in="SourceGraphic" in2="effect1_dropShadow_160_38" result="shape"/>
</filter>
<filter id="filter2_d_160_38" x="31" y="52" width="34.0272" height="36.1023" filterUnits="userSpaceOnUse" color-interpolation-filters="sRGB">
<feFlood flood-opacity="0" result="BackgroundImageFix"/>
<feColorMatrix in="SourceAlpha" type="matrix" values="0 0 0 0 0 0 0 0 0 0 0 0 0 0 0 0 0 0 127 0" result="hardAlpha"/>
<feOffset dy="4"/>
<feGaussianBlur stdDeviation="2"/>
<feComposite in2="hardAlpha" operator="out"/>
<feColorMatrix type="matrix" values="0 0 0 0 0 0 0 0 0 0 0 0 0 0 0 0 0 0 0.25 0"/>
<feBlend mode="normal" in2="BackgroundImageFix" result="effect1_dropShadow_160_38"/>
<feBlend mode="normal" in="SourceGraphic" in2="effect1_dropShadow_160_38" result="shape"/>
</filter>
<filter id="filter3_d_160_38" x="37.5485" y="66" width="34.5715" height="18.9372" filterUnits="userSpaceOnUse" color-interpolation-filters="sRGB">
<feFlood flood-opacity="0" result="BackgroundImageFix"/>
<feColorMatrix in="SourceAlpha" type="matrix" values="0 0 0 0 0 0 0 0 0 0 0 0 0 0 0 0 0 0 127 0" result="hardAlpha"/>
<feOffset dy="4"/>
<feGaussianBlur stdDeviation="2"/>
<feComposite in2="hardAlpha" operator="out"/>
<feColorMatrix type="matrix" values="0 0 0 0 0 0 0 0 0 0 0 0 0 0 0 0 0 0 0.25 0"/>
<feBlend mode="normal" in2="BackgroundImageFix" result="effect1_dropShadow_160_38"/>
<feBlend mode="normal" in="SourceGraphic" in2="effect1_dropShadow_160_38" result="shape"/>
</filter>
<clipPath id="clip0_160_38">
<rect width="16" height="23.116" fill="white" transform="translate(35 60.7376) rotate(-33.1)"/>
</clipPath>
</defs>
</svg>
