<svg width="297" height="238" viewBox="0 0 297 238" fill="none" xmlns="http://www.w3.org/2000/svg">
<g clip-path="url(#clip0_217_24)">
<path d="M19.686 72.4186H16.2209C13.4595 72.4186 11.2209 73.7844 11.2209 75.4691V135.088C11.2209 136.773 13.4595 138.139 16.2209 138.139H19.686C22.4475 138.139 24.686 136.773 24.686 135.088V75.4691C24.686 73.7844 22.4475 72.4186 19.686 72.4186Z" fill="#D9D9D9"/>
<path d="M279.686 69.9302H276.221C273.46 69.9302 271.221 71.2959 271.221 72.9807V132.6C271.221 134.284 273.46 135.65 276.221 135.65H279.686C282.447 135.65 284.686 134.284 284.686 132.6V72.9807C284.686 71.2959 282.447 69.9302 279.686 69.9302Z" fill="#D9D9D9"/>
<path d="M242.059 67.8256H54.1746C40.6436 67.8256 29.6746 78.7946 29.6746 92.3256V212.884C29.6746 226.415 40.6436 237.384 54.1746 237.384H242.059C255.59 237.384 266.559 226.415 266.559 212.884V92.3256C266.559 78.7946 255.59 67.8256 242.059 67.8256Z" fill="#31B2F3" stroke="#55C6FF"/>
<path d="M246.105 94.2558H50.1279C48.4711 94.2558 47.1279 95.5989 47.1279 97.2558V181.023C47.1279 182.68 48.4711 184.023 50.1279 184.023H246.105C247.762 184.023 249.105 182.68 249.105 181.023V97.2558C249.105 95.5989 247.762 94.2558 246.105 94.2558Z" fill="#1B57F1"/>
<path d="M87.5233 166.07C104.875 166.07 118.942 152.003 118.942 134.651C118.942 117.299 104.875 103.232 87.5233 103.232C70.1713 103.232 56.1047 117.299 56.1047 134.651C56.1047 152.003 70.1713 166.07 87.5233 166.07Z" fill="white"/>
<path d="M96.9976 116.536C92.547 114.026 87.296 113.341 82.3504 114.626C77.4048 115.91 73.1504 119.063 70.483 123.421C67.8156 127.779 66.9432 133.002 68.0497 137.99C69.1561 142.979 72.155 147.343 76.4149 150.165C80.6748 152.986 85.8633 154.045 90.8881 153.117C95.9128 152.19 100.382 149.349 103.354 145.193C106.326 141.037 107.569 135.889 106.822 130.835C106.075 125.78 103.396 121.212 99.3486 118.093L93.9327 125.122C96.1595 126.838 97.6336 129.351 98.0447 132.132C98.4557 134.913 97.7716 137.745 96.1363 140.032C94.5011 142.319 92.0423 143.882 89.2777 144.392C86.5131 144.902 83.6584 144.32 81.3146 142.767C78.9708 141.215 77.3208 138.813 76.7121 136.069C76.1033 133.324 76.5833 130.451 78.0509 128.053C79.5185 125.655 81.8593 123.92 84.5803 123.214C87.3014 122.507 90.1904 122.884 92.6392 124.265L96.9976 116.536Z" fill="black"/>
<path d="M208.709 166.07C226.061 166.07 240.128 152.003 240.128 134.651C240.128 117.299 226.061 103.232 208.709 103.232C191.357 103.232 177.291 117.299 177.291 134.651C177.291 152.003 191.357 166.07 208.709 166.07Z" fill="white"/>
<path d="M219.332 116.536C214.881 114.026 209.63 113.341 204.684 114.626C199.739 115.91 195.484 119.063 192.817 123.421C190.15 127.779 189.277 133.002 190.384 137.99C191.49 142.979 194.489 147.343 198.749 150.165C203.009 152.986 208.197 154.045 213.222 153.117C218.247 152.19 222.716 149.349 225.688 145.193C228.66 141.037 229.903 135.889 229.156 130.835C228.409 125.78 225.73 121.212 221.683 118.093L216.267 125.122C218.493 126.838 219.968 129.351 220.379 132.132C220.79 134.913 220.106 137.745 218.47 140.032C216.835 142.319 214.376 143.882 211.612 144.392C208.847 144.902 205.992 144.32 203.649 142.767C201.305 141.215 199.655 138.813 199.046 136.069C198.437 133.324 198.917 130.451 200.385 128.053C201.852 125.655 204.193 123.92 206.914 123.214C209.635 122.507 212.524 122.884 214.973 124.265L219.332 116.536Z" fill="black"/>
<path d="M161.659 159.337C162.856 159.337 163.852 160.328 163.498 161.471C162.822 163.653 161.118 165.677 158.567 167.272C155.2 169.376 150.634 170.558 145.872 170.558C141.111 170.558 136.544 169.376 133.177 167.272C130.626 165.677 128.922 163.653 128.246 161.471C127.892 160.328 128.889 159.337 130.086 159.337C131.282 159.337 132.224 160.34 132.678 161.448C133.278 162.915 134.5 164.268 136.242 165.356C138.796 166.953 142.26 167.85 145.872 167.85C149.484 167.85 152.949 166.953 155.503 165.356C157.245 164.268 158.466 162.915 159.067 161.448C159.52 160.34 160.462 159.337 161.659 159.337Z" fill="white"/>
<path d="M262.57 188.751C271.466 188.751 279.998 185.192 286.289 178.857C292.579 172.521 296.113 163.928 296.113 154.969C296.113 146.009 292.579 137.416 286.289 131.081C279.998 124.745 271.466 121.186 262.57 121.186V154.969V188.751Z" fill="#1B57F1"/>
<path d="M33.5435 121.186C24.6472 121.186 16.1153 124.745 9.82467 131.081C3.53404 137.416 6.71652e-07 146.009 0 154.969C-6.71652e-07 163.928 3.53404 172.521 9.82467 178.856C16.1153 185.192 24.6472 188.751 33.5435 188.751V154.969V121.186Z" fill="#1B57F1"/>
<path d="M35.907 61.1977C35.907 71.1131 27.8689 79.1512 17.9535 79.1512C8.03805 79.1512 0 71.1131 0 61.1977C0 51.2822 8.03805 43.2442 17.9535 43.2442C27.8689 43.2442 35.907 51.2822 35.907 61.1977Z" fill="#1B57F1"/>
<path d="M295.907 60.9535C295.907 70.8689 287.868 78.907 277.953 78.907C268.038 78.907 260 70.8689 260 60.9535C260 51.0381 268.038 43 277.953 43C287.868 43 295.907 51.0381 295.907 60.9535Z" fill="#1B57F1"/>
</g>
<defs>
<clipPath id="clip0_217_24">
<rect width="297" height="238" fill="white"/>
</clipPath>
</defs>
</svg>
