<svg width="100" height="100" viewBox="0 0 100 100" fill="none" xmlns="http://www.w3.org/2000/svg">
<path fill-rule="evenodd" clip-rule="evenodd" d="M59.0529 7.72828C57.4163 -2.57609 42.5843 -2.57609 40.9477 7.72828C39.8746 14.4845 32.0467 17.7269 26.5106 13.7083C18.0671 7.57927 7.57927 18.0671 13.7083 26.5106C17.7269 32.0467 14.4845 39.8746 7.72828 40.9477C-2.57609 42.5843 -2.57609 57.4163 7.72828 59.0529C14.4845 60.126 17.7269 67.9539 13.7083 73.49C7.57927 81.9335 18.0671 92.4213 26.5106 86.2923C32.0467 82.2737 39.8746 85.5161 40.9477 92.2723C42.5843 102.577 57.4163 102.577 59.0529 92.2723C60.126 85.5161 67.9539 82.2737 73.49 86.2923C81.9335 92.4213 92.4213 81.9335 86.2923 73.49C82.2737 67.9539 85.5161 60.126 92.2723 59.0529C102.577 57.4163 102.577 42.5843 92.2723 40.9477C85.5161 39.8746 82.2737 32.0467 86.2923 26.5106C92.4213 18.0671 81.9335 7.57927 73.49 13.7083C67.9539 17.7269 60.126 14.4845 59.0529 7.72828ZM50.993 73.8249C64.6992 73.8249 75.8103 62.7138 75.8103 49.0076C75.8103 35.3014 64.6992 24.1904 50.993 24.1904C37.2868 24.1904 26.1757 35.3014 26.1757 49.0076C26.1757 62.7138 37.2868 73.8249 50.993 73.8249Z" fill="#3E3E3E"/>
<circle cx="50.993" cy="49.0076" r="24.8173" fill="#BBBBBB"/>
<path d="M65.0638 47.4749C66.904 48.6554 66.904 51.3446 65.0638 52.5251L46.6199 64.3569C44.6232 65.6377 42 64.204 42 61.8318L42 38.1682C42 35.796 44.6232 34.3623 46.6198 35.6431L65.0638 47.4749Z" fill="#009A45"/>
</svg>
